# Blender v2.79 (sub 0) OBJ File: ''
# www.blender.org
mtllib test4Result.mtl
o Plane_Plane.009
v -0.144291 -0.026393 1.535685
v 9.708190 -0.026393 0.163088
v 5.281950 -0.026392 -8.883992
v 4.781950 -0.026393 0.256237
v -0.144291 -0.026395 9.369753
v -0.144291 -0.026394 4.854494
v -0.144291 -0.026394 7.830839
v 4.651112 -0.026395 9.830051
v 8.166456 -0.026395 9.830051
v 10.866275 -0.026395 9.830051
l 1 6
l 6 7
l 8 9
l 9 10
l 5 8
l 1 2
l 3 4
o Plane.001
v -0.266226 0.175889 1.653575
v 1.733774 0.175889 1.653575
v -0.266226 0.175889 -0.346425
v 1.733774 0.175889 -0.346425
vn 0.0000 1.0000 0.0000
usemtl None
s off
f 11//1 12//1 14//1 13//1
